# xmcd
#
# Track frame offsets:
#	150
#	14456
#	30942
#	42701
#	61066
#	80561
#	93982
#	110562
#	124463
#	140652
#	156222
#	171271
#
# Disc length: 2525 seconds
#
# Revision: 2
# Processed by: cddbd v1.5.2PL0 Copyright (c) Steve Scherf et al.
# Submitted via: audiograbber 1.83.01
#
DISCID=a209db0c
DTITLE=The Blues Band - Brand Loyality
DYEAR=1982
DGENRE=Blues
TTITLE0=Seemed Like A Good Idea (At The Time)
TTITLE1=Rolling Log
TTITLE2=I Want To Be Loved
TTITLE3=Might As Well Be Me
TTITLE4=What Do You Want?
TTITLE5=Big Fine Girl
TTITLE6=Sure Feels Good
TTITLE7=Little Baby
TTITLE8=Grits Ain't Groceries
TTITLE9=Funny Money
TTITLE10=Take Me Home
TTITLE11=Oo oo ee
EXTD=
EXTT0=
EXTT1=
EXTT2=
EXTT3=
EXTT4=
EXTT5=
EXTT6=
EXTT7=
EXTT8=
EXTT9=
EXTT10=
EXTT11=
PLAYORDER=
